<?xml version="1.0" encoding="utf-8"?>
<!-- Generator: Adobe Illustrator 25.0.0, SVG Export Plug-In . SVG Version: 6.00 Build 0)  -->
<svg version="1.1" id="Layer_2_1_" xmlns="http://www.w3.org/2000/svg" xmlns:xlink="http://www.w3.org/1999/xlink" x="0px" y="0px"
	 viewBox="0 0 506.1 479.3" style="enable-background:new 0 0 506.1 479.3;" xml:space="preserve">
<style type="text/css">
	.st0{fill:#61DAFB;}
</style>
<g>
	<path class="st0" d="M498.4,238.5c0-32.5-40.7-63.3-103.1-82.4c14.4-63.6,8-114.2-20.2-130.4c-6.5-3.8-14.1-5.6-22.4-5.6v22.3
		c4.6,0,8.3,0.9,11.4,2.6c13.6,7.8,19.5,37.5,14.9,75.7c-1.1,9.4-2.9,19.3-5.1,29.4c-19.6-4.8-41-8.5-63.5-10.9
		c-13.5-18.5-27.5-35.3-41.6-50c32.6-30.3,63.2-46.9,84-46.9V20l0,0c-27.5,0-63.5,19.6-99.9,53.6c-36.4-33.8-72.4-53.2-99.9-53.2
		v22.3c20.7,0,51.4,16.5,84,46.6c-14,14.7-28,31.4-41.3,49.9c-22.6,2.4-44,6.1-63.6,11c-2.3-10-4-19.7-5.2-29
		c-4.7-38.2,1.1-67.9,14.6-75.8c3-1.8,6.9-2.6,11.5-2.6V20.5l0,0c-8.4,0-16,1.8-22.6,5.6C102.3,42.3,96,92.8,110.5,156.2
		C48.3,175.4,7.8,206.1,7.8,238.5c0,32.5,40.7,63.3,103.1,82.4c-14.4,63.6-8,114.2,20.2,130.4c6.5,3.8,14.1,5.6,22.5,5.6
		c27.5,0,63.5-19.6,99.9-53.6c36.4,33.8,72.4,53.2,99.9,53.2c8.4,0,16-1.8,22.6-5.6c28.1-16.2,34.4-66.7,19.9-130.1
		C457.9,301.7,498.4,270.9,498.4,238.5z M368.2,171.8c-3.7,12.9-8.3,26.2-13.5,39.5c-4.1-8-8.4-16-13.1-24
		c-4.6-8-9.5-15.8-14.4-23.4C341.4,166,355.1,168.6,368.2,171.8z M322.4,278.3c-7.8,13.5-15.8,26.3-24.1,38.2c-14.9,1.3-30,2-45.2,2
		c-15.1,0-30.2-0.7-45-1.9c-8.3-11.9-16.4-24.6-24.2-38c-7.6-13.1-14.5-26.4-20.8-39.8c6.2-13.4,13.2-26.8,20.7-39.9
		c7.8-13.5,15.8-26.3,24.1-38.2c14.9-1.3,30-2,45.2-2c15.1,0,30.2,0.7,45,1.9c8.3,11.9,16.4,24.6,24.2,38
		c7.6,13.1,14.5,26.4,20.8,39.8C336.8,251.8,329.9,265.2,322.4,278.3z M354.7,265.3c5.4,13.4,10,26.8,13.8,39.8
		c-13.1,3.2-26.9,5.9-41.2,8c4.9-7.7,9.8-15.6,14.4-23.7C346.3,281.4,350.6,273.3,354.7,265.3z M253.3,372
		c-9.3-9.6-18.6-20.3-27.8-32c9,0.4,18.2,0.7,27.5,0.7c9.4,0,18.7-0.2,27.8-0.7C271.8,351.7,262.5,362.4,253.3,372z M178.9,313.1
		c-14.2-2.1-27.9-4.7-41-7.9c3.7-12.9,8.3-26.2,13.5-39.5c4.1,8,8.4,16,13.1,24S174,305.5,178.9,313.1z M252.8,105
		c9.3,9.6,18.6,20.3,27.8,32c-9-0.4-18.2-0.7-27.5-0.7c-9.4,0-18.7,0.2-27.8,0.7C234.3,125.3,243.6,114.6,252.8,105z M178.8,163.9
		c-4.9,7.7-9.8,15.6-14.4,23.7c-4.6,8-8.9,16-13,24c-5.4-13.4-10-26.8-13.8-39.8C150.7,168.7,164.5,166,178.8,163.9z M88.3,289.1
		C52.9,274,30,254.2,30,238.5s22.9-35.6,58.3-50.6c8.6-3.7,18-7,27.7-10.1c5.7,19.6,13.2,40,22.5,60.9
		c-9.2,20.8-16.6,41.1-22.2,60.6C106.4,296.2,97,292.8,88.3,289.1z M142.1,432c-13.6-7.8-19.5-37.5-14.9-75.7
		c1.1-9.4,2.9-19.3,5.1-29.4c19.6,4.8,41,8.5,63.5,10.9c13.5,18.5,27.5,35.3,41.6,50c-32.6,30.3-63.2,46.9-84,46.9
		C148.9,434.6,145.1,433.7,142.1,432z M379.3,355.8c4.7,38.2-1.1,67.9-14.6,75.8c-3,1.8-6.9,2.6-11.5,2.6c-20.7,0-51.4-16.5-84-46.6
		c14-14.7,28-31.4,41.3-49.9c22.6-2.4,44-6.1,63.6-11C376.4,336.8,378.2,346.5,379.3,355.8z M417.8,289.1c-8.6,3.7-18,7-27.7,10.1
		c-5.7-19.6-13.2-40-22.5-60.9c9.2-20.8,16.6-41.1,22.2-60.6c9.9,3.1,19.3,6.5,28.1,10.2c35.4,15.1,58.3,34.9,58.3,50.6
		C476.1,254.2,453.2,274.1,417.8,289.1z"/>
	<path class="st0" d="M152.9,20.4L152.9,20.4L152.9,20.4z"/>
	<circle class="st0" cx="253" cy="238.5" r="45.7"/>
	<path class="st0" d="M352.6,20.1L352.6,20.1L352.6,20.1z"/>
</g>
</svg>
