<?xml version="1.0" encoding="utf-8"?>
<!-- Generator: Adobe Illustrator 24.0.0, SVG Export Plug-In . SVG Version: 6.00 Build 0)  -->
<svg version="1.1" id="Layer_1" xmlns="http://www.w3.org/2000/svg" xmlns:xlink="http://www.w3.org/1999/xlink" x="0px" y="0px"
	 viewBox="0 0 127.7 24.9" style="enable-background:new 0 0 127.7 24.9;" xml:space="preserve">
<style type="text/css">
	.st0{fill:#FFFFFF;}
	.st1{fill:url(#Ellipse_18-2_1_);}
</style>
<g>
	<path class="st0" d="M59.4,13.1c0-1.2,0.4-2.2,1.2-3.1c0.8-0.8,1.8-1.3,3-1.3c0.5,0,1,0.1,1.4,0.2c0.5,0.2,0.8,0.4,1.1,0.7V8.9h1.7
		v6.5c0,0.2,0.1,0.5,0.3,0.7c0.2,0.2,0.5,0.3,0.8,0.3c0.7,0,1.3-0.4,1.9-1.1c0.5-0.7,0.8-1.6,0.8-2.7c0-1.8-0.7-3.4-2.1-4.7
		c-1.4-1.3-3.1-1.9-5.1-1.9c-2,0-3.7,0.7-5.1,2.1c-1.4,1.4-2.1,3.1-2.1,5.1c0,1.9,0.7,3.4,2.1,4.7c1.4,1.3,3.1,2,5.1,2
		c0.9,0,1.8-0.1,2.6-0.3c0.8-0.2,1.4-0.5,1.9-0.9l0.8,1.4c-0.6,0.4-1.4,0.8-2.3,1c-0.9,0.2-1.9,0.4-3,0.4c-2.5,0-4.6-0.8-6.3-2.4
		c-1.7-1.6-2.6-3.6-2.6-5.8c0-2.5,0.9-4.6,2.6-6.3s3.9-2.6,6.3-2.6c2.5,0,4.6,0.8,6.3,2.5c1.7,1.6,2.6,3.6,2.6,5.9
		c0,1.5-0.4,2.8-1.3,3.9c-0.9,1.1-1.9,1.6-3.1,1.6c-0.7,0-1.3-0.2-1.8-0.5c-0.5-0.3-0.8-0.8-0.9-1.3c-0.2,0.4-0.6,0.7-1.1,0.9
		c-0.5,0.2-0.9,0.3-1.5,0.3c-1.2,0-2.2-0.4-3-1.3C59.8,15.3,59.4,14.3,59.4,13.1z M61.2,13.1c0,0.7,0.2,1.4,0.7,1.9
		c0.5,0.5,1,0.8,1.7,0.8c0.7,0,1.3-0.3,1.8-0.8c0.5-0.5,0.7-1.2,0.7-1.9c0-0.7-0.2-1.4-0.7-1.9s-1.1-0.8-1.8-0.8
		c-0.7,0-1.3,0.3-1.7,0.8C61.4,11.7,61.2,12.4,61.2,13.1z"/>
</g>
<g>
	<path class="st0" d="M14,7.5c4.5,0,6.6,1.9,6.6,5.9c0,4-2.2,5.9-6.6,5.9c-0.1,0-0.2-0.1-0.2-0.2V7.6C13.9,7.5,14,7.5,14,7.5
		 M14,6.8c-0.5,0-0.8,0.4-0.8,0.8v11.6c0,0.5,0.4,0.9,0.9,0.9c2.6,0,7.3-0.6,7.3-6.6C21.4,7.4,16.6,6.8,14,6.8L14,6.8z"/>
	<path class="st0" d="M27.6,8l3.8,11.4h-7.7L27.6,8 M27.6,6.7c-0.2,0-0.4,0.1-0.4,0.3l-4.4,13.1h9.6L28,7C28,6.8,27.8,6.7,27.6,6.7
		L27.6,6.7z"/>
	<path class="st0" d="M46.9,8l3.8,11.4h-7.7L46.9,8 M46.9,6.7c-0.2,0-0.4,0.1-0.4,0.3l-4.4,13.1h9.6L47.4,7
		C47.3,6.8,47.1,6.7,46.9,6.7L46.9,6.7z"/>
	<polygon class="st0" points="42.4,6.7 32.2,6.7 32.2,7.4 36.9,7.4 36.9,20.1 37.6,20.1 37.6,7.4 42.4,7.4 	"/>
</g>
<g>
	<path class="st0" d="M114.1,7c4.5,0,6.6,2,6.6,6.1c0,4.1-2.2,6.1-6.6,6.1c-0.1,0-0.2-0.1-0.2-0.2V7.2C114,7.1,114,7,114.1,7
		 M114.1,6.3c-0.5,0-0.8,0.4-0.8,0.9v11.9c0,0.5,0.4,0.9,0.9,0.9c2.6,0,7.3-0.6,7.3-6.8C121.4,6.9,116.7,6.3,114.1,6.3L114.1,6.3z"
		/>
	<path class="st0" d="M94.5,7.6l3.8,11.5h-7.7L94.5,7.6 M94.5,6.3c-0.2,0-0.4,0.1-0.4,0.3l-4.4,13.1h9.6L94.9,6.7
		C94.8,6.4,94.7,6.3,94.5,6.3L94.5,6.3z"/>
	<polygon class="st0" points="86.5,6.5 86.5,12.5 78.8,12.5 78.8,6.5 78.1,6.5 78.1,19.8 78.8,19.8 78.8,13.2 86.5,13.2 86.5,19.8 
		87.2,19.8 87.2,6.5 	"/>
	<path class="st0" d="M109.9,20.2c-0.3,0-0.5-0.2-0.7-0.4l-6.9-12.8l-0.1,12.9h-0.7V6.9c0-0.3,0.2-0.6,0.6-0.7
		c0.3-0.1,0.7,0.1,0.8,0.4l6.9,12.8c0,0,0,0.1,0.1,0c0.1,0,0.1-0.1,0.1-0.1V6.5h0.7v12.9c0,0.4-0.2,0.7-0.6,0.8
		C110,20.2,109.9,20.2,109.9,20.2z"/>
</g>
<g transform="matrix(1, 0, 0, 1, 0, 0)">
	
		<linearGradient id="Ellipse_18-2_1_" gradientUnits="userSpaceOnUse" x1="-230.0961" y1="402.3601" x2="-230.0961" y2="402.3005" gradientTransform="matrix(58 0 0 -58 13469.1465 23338.8203)">
		<stop  offset="0" style="stop-color:#56C4C4"/>
		<stop  offset="0" style="stop-color:#FFC710"/>
		<stop  offset="1" style="stop-color:#F89D59"/>
	</linearGradient>
	<circle id="Ellipse_18-2" class="st1" cx="123.6" cy="3.7" r="1.7"/>
</g>
</svg>
